M48
; DRILL file KiCad 10.0.1 date 2026-09-02T21:33:53
; FORMAT={-:-/ absolute / metric / decimal}
; #@! TF.CreationDate,2026-09-02T21:33:53-05:00
; #@! TF.GenerationSoftware,Kicad,Pcbnew,10.0.1
; #@! TF.FileFunction,Plated,1,2,PTH
FMAT,2
METRIC
; #@! TA.AperFunction,Plated,PTH,ViaDrill
T1C0.200
; #@! TA.AperFunction,Plated,PTH,ComponentDrill
T2C0.200
; #@! TA.AperFunction,Plated,PTH,ViaDrill
T3C0.300
; #@! TA.AperFunction,Plated,PTH,ComponentDrill
T4C0.500
; #@! TA.AperFunction,Plated,PTH,ComponentDrill
T5C0.600
; #@! TA.AperFunction,Plated,PTH,ComponentDrill
T6C1.000
%
G90
G05
T1
X140.7Y-79.87
X140.78Y-70.15
X140.79Y-73.77
X141.01Y-61.67
X144.94Y-72.22
X145.39Y-66.58
X146.11Y-77.36
X150.17Y-81.23
X152.72Y-58.66
X153.1Y-71.34
X153.19Y-69.12
X153.26Y-64.08
X153.82Y-78.82
X154.18Y-61.28
X154.22Y-51.88
X154.7Y-65.6
X154.85Y-62.73
X154.88Y-74.13
X154.955Y-66.37
X156.25Y-79.12
X157.132Y-66.11
X157.345Y-61.715
X157.72Y-70.73
X158.19Y-62.56
X159.15Y-65.79
X161.1Y-57.99
X161.66Y-63.89
X161.81Y-67.85
X161.89Y-52.42
X163.91Y-71.56
X164.92Y-69.25
X167.82Y-54.73
X168.85Y-52.32
X169.24Y-66.95
X169.64Y-52.8
X169.92Y-50.77
X170.93Y-54.96
X172.45Y-49.48
X172.7Y-54.93
X172.91Y-70.68
X173.04Y-75.19
X173.44Y-80.12
X173.61Y-65.23
T2
X171.885Y-52.03
X172.46Y-51.08
X172.46Y-52.98
X173.035Y-52.03
T3
X147.97Y-55.78
X152.731Y-74.172
X153.09Y-54.85
X153.191Y-76.281
X153.549Y-74.17
X153.7Y-77.71
X154.231Y-76.311
X156.52Y-51.89
X157.64Y-69.405
X157.66Y-79.61
X157.9Y-54.78
X158.95Y-57.02
X162.23Y-66.89
X162.24Y-65.417
X166.04Y-72.23
T4
X139.29Y-62.82
X139.29Y-63.82
X139.29Y-64.82
X139.29Y-65.82
X139.29Y-66.82
X139.29Y-67.82
X139.29Y-68.82
X139.29Y-69.82
X139.29Y-70.82
X139.29Y-71.82
X139.29Y-72.82
X139.29Y-73.82
X139.29Y-74.82
X139.29Y-75.82
X139.29Y-76.82
X139.29Y-77.82
X139.29Y-78.82
X139.29Y-79.82
X139.29Y-80.82
X139.29Y-81.82
X158.14Y-77.64
X159.14Y-77.64
X160.14Y-77.64
X175.375Y-63.165
X175.375Y-64.165
X175.375Y-65.165
X175.375Y-66.165
X175.375Y-67.165
X175.375Y-68.165
X175.375Y-69.165
X175.375Y-70.165
X175.375Y-71.165
X175.375Y-72.165
X175.375Y-73.165
X175.375Y-74.165
X175.375Y-75.165
X175.375Y-76.165
X175.375Y-77.165
X175.375Y-78.165
X175.375Y-79.165
X175.375Y-80.165
X175.375Y-81.165
X175.375Y-82.165
T6
X139.59Y-86.95
X139.59Y-89.49
X139.59Y-92.03
X139.59Y-94.57
T5
G00X151.3Y-48.66
M15
G01X151.3Y-48.06
M16
G05
G00X151.3Y-53.09
M15
G01X151.3Y-51.99
M16
G05
G00X159.94Y-48.66
M15
G01X159.94Y-48.06
M16
G05
G00X159.94Y-53.09
M15
G01X159.94Y-51.99
M16
G05
M30
